<?xml version="1.0" encoding="UTF-8" standalone="no"?>
<!DOCTYPE svg PUBLIC "-//W3C//DTD SVG 1.1//EN"
 "http://www.w3.org/Graphics/SVG/1.1/DTD/svg11.dtd">
<!-- Generated by graphviz version 2.42.4 (0)
 -->
<!-- Title: UseCase Pages: 1 -->
<svg width="1629pt" height="234pt"
 viewBox="0.00 0.00 1628.71 234.00" xmlns="http://www.w3.org/2000/svg" xmlns:xlink="http://www.w3.org/1999/xlink">
<g id="graph0" class="graph" transform="scale(1 1) rotate(0) translate(18 216)">
<title>UseCase</title>
<polygon fill="white" stroke="transparent" points="-18,18 -18,-216 1610.71,-216 1610.71,18 -18,18"/>
<g id="clust1" class="cluster">
<title>cluster_system</title>
<path fill="white" stroke="#1f4e78" stroke-width="1.6" d="M192,-44C192,-44 1572.71,-44 1572.71,-44 1578.71,-44 1584.71,-50 1584.71,-56 1584.71,-56 1584.71,-178 1584.71,-178 1584.71,-184 1578.71,-190 1572.71,-190 1572.71,-190 192,-190 192,-190 186,-190 180,-184 180,-178 180,-178 180,-56 180,-56 180,-50 186,-44 192,-44"/>
<text text-anchor="middle" x="882.35" y="-177.2" font-family="Helvetica,sans-Serif" font-size="11.00">Major Function 4 — Evidence&#45;Grounded Review and Escalation</text>
</g>
<!-- analyst -->
<g id="node1" class="node">
<title>analyst</title>
<path fill="#eaf2f8" stroke="#375a7f" stroke-width="1.2" d="M107.5,-179C107.5,-179 31.5,-179 31.5,-179 25.5,-179 19.5,-173 19.5,-167 19.5,-167 19.5,-155 19.5,-155 19.5,-149 25.5,-143 31.5,-143 31.5,-143 107.5,-143 107.5,-143 113.5,-143 119.5,-149 119.5,-155 119.5,-155 119.5,-167 119.5,-167 119.5,-173 113.5,-179 107.5,-179"/>
<text text-anchor="middle" x="69.5" y="-164" font-family="Helvetica,sans-Serif" font-size="10.00">«actor»</text>
<text text-anchor="middle" x="69.5" y="-153" font-family="Helvetica,sans-Serif" font-size="10.00">Contract Analyst</text>
</g>
<!-- uc1 -->
<g id="node4" class="node">
<title>uc1</title>
<ellipse fill="#f7fafc" stroke="#375a7f" stroke-width="1.2" cx="269.89" cy="-127" rx="81.79" ry="18"/>
<text text-anchor="middle" x="269.89" y="-124.5" font-family="Helvetica,sans-Serif" font-size="10.00">Search Official Corpus</text>
</g>
<!-- analyst&#45;&gt;uc1 -->
<g id="edge1" class="edge">
<title>analyst&#45;&gt;uc1</title>
<path fill="none" stroke="#4a5568" stroke-width="1.2" d="M69.71,-142.68C69.71,-137.06 69.71,-132.33 69.71,-132.33 69.71,-132.33 183.64,-132.33 183.64,-132.33"/>
<polygon fill="#4a5568" stroke="#4a5568" stroke-width="1.2" points="183.64,-135.13 191.64,-132.33 183.64,-129.53 183.64,-135.13"/>
</g>
<!-- specialist -->
<g id="node2" class="node">
<title>specialist</title>
<path fill="#eaf2f8" stroke="#375a7f" stroke-width="1.2" d="M1156.94,-36C1156.94,-36 1068.94,-36 1068.94,-36 1062.94,-36 1056.94,-30 1056.94,-24 1056.94,-24 1056.94,-12 1056.94,-12 1056.94,-6 1062.94,0 1068.94,0 1068.94,0 1156.94,0 1156.94,0 1162.94,0 1168.94,-6 1168.94,-12 1168.94,-12 1168.94,-24 1168.94,-24 1168.94,-30 1162.94,-36 1156.94,-36"/>
<text text-anchor="middle" x="1112.94" y="-21" font-family="Helvetica,sans-Serif" font-size="10.00">«actor»</text>
<text text-anchor="middle" x="1112.94" y="-10" font-family="Helvetica,sans-Serif" font-size="10.00">Qualified Specialist</text>
</g>
<!-- uc6 -->
<g id="node9" class="node">
<title>uc6</title>
<ellipse fill="#f7fafc" stroke="#375a7f" stroke-width="1.2" cx="1441.52" cy="-70" rx="135.38" ry="18"/>
<text text-anchor="middle" x="1441.52" y="-67.5" font-family="Helvetica,sans-Serif" font-size="10.00">Recommend Clarification or Escalation</text>
</g>
<!-- specialist&#45;&gt;uc6 -->
<g id="edge9" class="edge">
<title>specialist&#45;&gt;uc6</title>
<path fill="none" stroke="#4a5568" stroke-width="1.2" d="M1113.71,-36.19C1113.71,-51.18 1113.71,-70 1113.71,-70 1113.71,-70 1298.3,-70 1298.3,-70"/>
<polygon fill="#4a5568" stroke="#4a5568" stroke-width="1.2" points="1298.3,-72.8 1306.3,-70 1298.3,-67.2 1298.3,-72.8"/>
</g>
<!-- source -->
<g id="node3" class="node">
<title>source</title>
<path fill="#eaf2f8" stroke="#375a7f" stroke-width="1.2" d="M127,-111C127,-111 12,-111 12,-111 6,-111 0,-105 0,-99 0,-99 0,-87 0,-87 0,-81 6,-75 12,-75 12,-75 127,-75 127,-75 133,-75 139,-81 139,-87 139,-87 139,-99 139,-99 139,-105 133,-111 127,-111"/>
<text text-anchor="middle" x="69.5" y="-96" font-family="Helvetica,sans-Serif" font-size="10.00">«actor»</text>
<text text-anchor="middle" x="69.5" y="-85" font-family="Helvetica,sans-Serif" font-size="10.00">Approved Official Corpus</text>
</g>
<!-- source&#45;&gt;uc1 -->
<g id="edge2" class="edge">
<title>source&#45;&gt;uc1</title>
<path fill="none" stroke="#4a5568" stroke-width="1.2" d="M129.71,-111.32C129.71,-116.94 129.71,-121.67 129.71,-121.67 129.71,-121.67 183.6,-121.67 183.6,-121.67"/>
<polygon fill="#4a5568" stroke="#4a5568" stroke-width="1.2" points="183.6,-124.47 191.6,-121.67 183.6,-118.87 183.6,-124.47"/>
</g>
<!-- uc2 -->
<g id="node5" class="node">
<title>uc2</title>
<ellipse fill="#f7fafc" stroke="#375a7f" stroke-width="1.2" cx="524.68" cy="-70" rx="81.79" ry="18"/>
<text text-anchor="middle" x="524.68" y="-67.5" font-family="Helvetica,sans-Serif" font-size="10.00">Retrieve Exact Clause</text>
</g>
<!-- uc1&#45;&gt;uc2 -->
<g id="edge3" class="edge">
<title>uc1&#45;&gt;uc2</title>
<path fill="none" stroke="#4a5568" stroke-width="1.2" stroke-dasharray="5,2" d="M270.71,-108.76C270.71,-96.1 270.71,-81.5 270.71,-81.5 270.71,-81.5 453.57,-81.5 453.57,-81.5"/>
<polygon fill="#4a5568" stroke="#4a5568" stroke-width="1.2" points="453.57,-84.3 461.57,-81.5 453.57,-78.7 453.57,-84.3"/>
<text text-anchor="middle" x="397.29" y="-112.8" font-family="Helvetica,sans-Serif" font-size="9.00">«extend»</text>
</g>
<!-- uc3 -->
<g id="node6" class="node">
<title>uc3</title>
<ellipse fill="#f7fafc" stroke="#375a7f" stroke-width="1.2" cx="809.06" cy="-108" rx="110.48" ry="18"/>
<text text-anchor="middle" x="809.06" y="-105.5" font-family="Helvetica,sans-Serif" font-size="10.00">Validate Citation and Metadata</text>
</g>
<!-- uc1&#45;&gt;uc3 -->
<g id="edge4" class="edge">
<title>uc1&#45;&gt;uc3</title>
<path fill="none" stroke="#4a5568" stroke-width="1.2" stroke-dasharray="5,2" d="M339.55,-117.5C339.55,-117.5 707.15,-117.5 707.15,-117.5"/>
<polygon fill="#4a5568" stroke="#4a5568" stroke-width="1.2" points="707.15,-120.3 715.15,-117.5 707.15,-114.7 707.15,-120.3"/>
<text text-anchor="middle" x="524.68" y="-154.8" font-family="Helvetica,sans-Serif" font-size="9.00">«include»</text>
</g>
<!-- uc2&#45;&gt;uc3 -->
<g id="edge5" class="edge">
<title>uc2&#45;&gt;uc3</title>
<path fill="none" stroke="#4a5568" stroke-width="1.2" stroke-dasharray="5,2" d="M524.71,-88.18C524.71,-94.25 524.71,-99.5 524.71,-99.5 524.71,-99.5 703.6,-99.5 703.6,-99.5"/>
<polygon fill="#4a5568" stroke="#4a5568" stroke-width="1.2" points="703.6,-102.3 711.6,-99.5 703.6,-96.7 703.6,-102.3"/>
<text text-anchor="middle" x="652.57" y="-98.8" font-family="Helvetica,sans-Serif" font-size="9.00">«include»</text>
</g>
<!-- uc4 -->
<g id="node7" class="node">
<title>uc4</title>
<ellipse fill="#f7fafc" stroke="#375a7f" stroke-width="1.2" cx="1112.94" cy="-108" rx="101.28" ry="18"/>
<text text-anchor="middle" x="1112.94" y="-105.5" font-family="Helvetica,sans-Serif" font-size="10.00">Assess Evidence Sufficiency</text>
</g>
<!-- uc3&#45;&gt;uc4 -->
<g id="edge6" class="edge">
<title>uc3&#45;&gt;uc4</title>
<path fill="none" stroke="#4a5568" stroke-width="1.2" stroke-dasharray="5,2" d="M919.63,-108C919.63,-108 1003.54,-108 1003.54,-108"/>
<polygon fill="#4a5568" stroke="#4a5568" stroke-width="1.2" points="1003.54,-110.8 1011.54,-108 1003.54,-105.2 1003.54,-110.8"/>
<text text-anchor="middle" x="965.55" y="-110.8" font-family="Helvetica,sans-Serif" font-size="9.00">«include»</text>
</g>
<!-- uc5 -->
<g id="node8" class="node">
<title>uc5</title>
<ellipse fill="#f7fafc" stroke="#375a7f" stroke-width="1.2" cx="1441.52" cy="-138" rx="127.28" ry="18"/>
<text text-anchor="middle" x="1441.52" y="-135.5" font-family="Helvetica,sans-Serif" font-size="10.00">Identify Conflict or Missing Evidence</text>
</g>
<!-- uc4&#45;&gt;uc5 -->
<g id="edge7" class="edge">
<title>uc4&#45;&gt;uc5</title>
<path fill="none" stroke="#4a5568" stroke-width="1.2" stroke-dasharray="5,2" d="M1113.71,-126.19C1113.71,-131.3 1113.71,-135.5 1113.71,-135.5 1113.71,-135.5 1307.25,-135.5 1307.25,-135.5"/>
<polygon fill="#4a5568" stroke="#4a5568" stroke-width="1.2" points="1307.25,-138.3 1315.25,-135.5 1307.25,-132.7 1307.25,-138.3"/>
<text text-anchor="middle" x="1260.33" y="-138.8" font-family="Helvetica,sans-Serif" font-size="9.00">«extend»</text>
</g>
<!-- uc4&#45;&gt;uc6 -->
<g id="edge8" class="edge">
<title>uc4&#45;&gt;uc6</title>
<path fill="none" stroke="#4a5568" stroke-width="1.2" stroke-dasharray="5,2" d="M1212.98,-105C1262.04,-105 1310.71,-105 1310.71,-105 1310.71,-105 1310.71,-82.58 1310.71,-82.58"/>
<polygon fill="#4a5568" stroke="#4a5568" stroke-width="1.2" points="1313.51,-82.58 1310.71,-74.58 1307.91,-82.58 1313.51,-82.58"/>
<text text-anchor="middle" x="1260.33" y="-89.8" font-family="Helvetica,sans-Serif" font-size="9.00">«include»</text>
</g>
</g>
</svg>
