<?xml version="1.0" encoding="UTF-8" standalone="no"?>
<!DOCTYPE svg PUBLIC "-//W3C//DTD SVG 1.1//EN"
 "http://www.w3.org/Graphics/SVG/1.1/DTD/svg11.dtd">
<!-- Generated by graphviz version 2.42.4 (0)
 -->
<!-- Title: UseCase Pages: 1 -->
<svg width="1546pt" height="240pt"
 viewBox="0.00 0.00 1545.87 240.00" xmlns="http://www.w3.org/2000/svg" xmlns:xlink="http://www.w3.org/1999/xlink">
<g id="graph0" class="graph" transform="scale(1 1) rotate(0) translate(18 222)">
<title>UseCase</title>
<polygon fill="white" stroke="transparent" points="-18,18 -18,-222 1527.87,-222 1527.87,18 -18,18"/>
<g id="clust1" class="cluster">
<title>cluster_system</title>
<path fill="white" stroke="#1f4e78" stroke-width="1.6" d="M202,-44C202,-44 1489.87,-44 1489.87,-44 1495.87,-44 1501.87,-50 1501.87,-56 1501.87,-56 1501.87,-184 1501.87,-184 1501.87,-190 1495.87,-196 1489.87,-196 1489.87,-196 202,-196 202,-196 196,-196 190,-190 190,-184 190,-184 190,-56 190,-56 190,-50 196,-44 202,-44"/>
<text text-anchor="middle" x="845.93" y="-183.2" font-family="Helvetica,sans-Serif" font-size="11.00">Major Function 1 — Opportunity Intake and Provenance</text>
</g>
<!-- analyst -->
<g id="node1" class="node">
<title>analyst</title>
<path fill="#eaf2f8" stroke="#375a7f" stroke-width="1.2" d="M120.5,-160C120.5,-160 28.5,-160 28.5,-160 22.5,-160 16.5,-154 16.5,-148 16.5,-148 16.5,-136 16.5,-136 16.5,-130 22.5,-124 28.5,-124 28.5,-124 120.5,-124 120.5,-124 126.5,-124 132.5,-130 132.5,-136 132.5,-136 132.5,-148 132.5,-148 132.5,-154 126.5,-160 120.5,-160"/>
<text text-anchor="middle" x="74.5" y="-145" font-family="Helvetica,sans-Serif" font-size="10.00">«actor»</text>
<text text-anchor="middle" x="74.5" y="-134" font-family="Helvetica,sans-Serif" font-size="10.00">Opportunity Analyst</text>
</g>
<!-- uc1 -->
<g id="node4" class="node">
<title>uc1</title>
<ellipse fill="#f7fafc" stroke="#375a7f" stroke-width="1.2" cx="248.7" cy="-108" rx="50.89" ry="18"/>
<text text-anchor="middle" x="248.7" y="-105.5" font-family="Helvetica,sans-Serif" font-size="10.00">Create Case</text>
</g>
<!-- analyst&#45;&gt;uc1 -->
<g id="edge1" class="edge">
<title>analyst&#45;&gt;uc1</title>
<path fill="none" stroke="#4a5568" stroke-width="1.2" d="M132.56,-146C183.29,-146 248.87,-146 248.87,-146 248.87,-146 248.87,-134.11 248.87,-134.11"/>
<polygon fill="#4a5568" stroke="#4a5568" stroke-width="1.2" points="251.67,-134.11 248.87,-126.11 246.07,-134.11 251.67,-134.11"/>
</g>
<!-- source -->
<g id="node2" class="node">
<title>source</title>
<path fill="#eaf2f8" stroke="#375a7f" stroke-width="1.2" d="M137,-92C137,-92 12,-92 12,-92 6,-92 0,-86 0,-80 0,-80 0,-68 0,-68 0,-62 6,-56 12,-56 12,-56 137,-56 137,-56 143,-56 149,-62 149,-68 149,-68 149,-80 149,-80 149,-86 143,-92 137,-92"/>
<text text-anchor="middle" x="74.5" y="-77" font-family="Helvetica,sans-Serif" font-size="10.00">«actor»</text>
<text text-anchor="middle" x="74.5" y="-66" font-family="Helvetica,sans-Serif" font-size="10.00">Public Procurement Source</text>
</g>
<!-- source&#45;&gt;uc1 -->
<g id="edge2" class="edge">
<title>source&#45;&gt;uc1</title>
<path fill="none" stroke="#4a5568" stroke-width="1.2" d="M140.87,-92.19C140.87,-100.28 140.87,-108 140.87,-108 140.87,-108 189.94,-108 189.94,-108"/>
<polygon fill="#4a5568" stroke="#4a5568" stroke-width="1.2" points="189.94,-110.8 197.94,-108 189.94,-105.2 189.94,-110.8"/>
</g>
<!-- data_owner -->
<g id="node3" class="node">
<title>data_owner</title>
<path fill="#eaf2f8" stroke="#375a7f" stroke-width="1.2" d="M535.78,-36C535.78,-36 423.78,-36 423.78,-36 417.78,-36 411.78,-30 411.78,-24 411.78,-24 411.78,-12 411.78,-12 411.78,-6 417.78,0 423.78,0 423.78,0 535.78,0 535.78,0 541.78,0 547.78,-6 547.78,-12 547.78,-12 547.78,-24 547.78,-24 547.78,-30 541.78,-36 535.78,-36"/>
<text text-anchor="middle" x="479.78" y="-21" font-family="Helvetica,sans-Serif" font-size="10.00">«actor»</text>
<text text-anchor="middle" x="479.78" y="-10" font-family="Helvetica,sans-Serif" font-size="10.00">Data / Privacy Reviewer</text>
</g>
<!-- uc6 -->
<g id="node9" class="node">
<title>uc6</title>
<ellipse fill="#f7fafc" stroke="#375a7f" stroke-width="1.2" cx="768.07" cy="-76" rx="85.62" ry="24.08"/>
<text text-anchor="middle" x="768.07" y="-79" font-family="Helvetica,sans-Serif" font-size="10.00">Escalate Sensitive or</text>
<text text-anchor="middle" x="768.07" y="-68" font-family="Helvetica,sans-Serif" font-size="10.00">Unverified Data</text>
</g>
<!-- data_owner&#45;&gt;uc6 -->
<g id="edge8" class="edge">
<title>data_owner&#45;&gt;uc6</title>
<path fill="none" stroke="#4a5568" stroke-width="1.2" d="M479.87,-36.01C479.87,-52.05 479.87,-73 479.87,-73 479.87,-73 675.16,-73 675.16,-73"/>
<polygon fill="#4a5568" stroke="#4a5568" stroke-width="1.2" points="675.16,-75.8 683.16,-73 675.16,-70.2 675.16,-75.8"/>
</g>
<!-- uc2 -->
<g id="node5" class="node">
<title>uc2</title>
<ellipse fill="#f7fafc" stroke="#375a7f" stroke-width="1.2" cx="479.78" cy="-108" rx="88.28" ry="18"/>
<text text-anchor="middle" x="479.78" y="-105.5" font-family="Helvetica,sans-Serif" font-size="10.00">Validate Required Fields</text>
</g>
<!-- uc1&#45;&gt;uc2 -->
<g id="edge3" class="edge">
<title>uc1&#45;&gt;uc2</title>
<path fill="none" stroke="#4a5568" stroke-width="1.2" stroke-dasharray="5,2" d="M299.41,-108C299.41,-108 383,-108 383,-108"/>
<polygon fill="#4a5568" stroke="#4a5568" stroke-width="1.2" points="383,-110.8 391,-108 383,-105.2 383,-110.8"/>
<text text-anchor="middle" x="345.39" y="-110.8" font-family="Helvetica,sans-Serif" font-size="9.00">«include»</text>
</g>
<!-- uc3 -->
<g id="node6" class="node">
<title>uc3</title>
<ellipse fill="#f7fafc" stroke="#375a7f" stroke-width="1.2" cx="768.07" cy="-150" rx="107.78" ry="18"/>
<text text-anchor="middle" x="768.07" y="-147.5" font-family="Helvetica,sans-Serif" font-size="10.00">Normalize Opportunity Record</text>
</g>
<!-- uc2&#45;&gt;uc3 -->
<g id="edge4" class="edge">
<title>uc2&#45;&gt;uc3</title>
<path fill="none" stroke="#4a5568" stroke-width="1.2" stroke-dasharray="5,2" d="M567.67,-110C618.25,-110 671.87,-110 671.87,-110 671.87,-110 671.87,-133.52 671.87,-133.52"/>
<polygon fill="#4a5568" stroke="#4a5568" stroke-width="1.2" points="669.07,-133.52 671.87,-141.52 674.67,-133.52 669.07,-133.52"/>
<text text-anchor="middle" x="614.18" y="-147.8" font-family="Helvetica,sans-Serif" font-size="9.00">«include»</text>
</g>
<!-- uc2&#45;&gt;uc6 -->
<g id="edge7" class="edge">
<title>uc2&#45;&gt;uc6</title>
<path fill="none" stroke="#4a5568" stroke-width="1.2" stroke-dasharray="5,2" d="M541.27,-95.02C541.27,-95.02 707.37,-95.02 707.37,-95.02"/>
<polygon fill="#4a5568" stroke="#4a5568" stroke-width="1.2" points="707.37,-97.82 715.37,-95.02 707.37,-92.22 707.37,-97.82"/>
<text text-anchor="middle" x="614.18" y="-95.8" font-family="Helvetica,sans-Serif" font-size="9.00">«extend»</text>
</g>
<!-- uc4 -->
<g id="node7" class="node">
<title>uc4</title>
<ellipse fill="#f7fafc" stroke="#375a7f" stroke-width="1.2" cx="1073.9" cy="-146" rx="105.88" ry="18"/>
<text text-anchor="middle" x="1073.9" y="-143.5" font-family="Helvetica,sans-Serif" font-size="10.00">Record Source and Checksum</text>
</g>
<!-- uc3&#45;&gt;uc4 -->
<g id="edge5" class="edge">
<title>uc3&#45;&gt;uc4</title>
<path fill="none" stroke="#4a5568" stroke-width="1.2" stroke-dasharray="5,2" d="M875.46,-148C875.46,-148 960.56,-148 960.56,-148"/>
<polygon fill="#4a5568" stroke="#4a5568" stroke-width="1.2" points="960.56,-150.8 968.56,-148 960.56,-145.2 960.56,-150.8"/>
<text text-anchor="middle" x="921.96" y="-151.8" font-family="Helvetica,sans-Serif" font-size="9.00">«include»</text>
</g>
<!-- uc5 -->
<g id="node8" class="node">
<title>uc5</title>
<ellipse fill="#f7fafc" stroke="#375a7f" stroke-width="1.2" cx="1382.85" cy="-144" rx="111.03" ry="24.08"/>
<text text-anchor="middle" x="1382.85" y="-147" font-family="Helvetica,sans-Serif" font-size="10.00">Recommend Accept, Return,</text>
<text text-anchor="middle" x="1382.85" y="-136" font-family="Helvetica,sans-Serif" font-size="10.00">or Reject Intake</text>
</g>
<!-- uc4&#45;&gt;uc5 -->
<g id="edge6" class="edge">
<title>uc4&#45;&gt;uc5</title>
<path fill="none" stroke="#4a5568" stroke-width="1.2" stroke-dasharray="5,2" d="M1180.22,-146C1180.22,-146 1264.12,-146 1264.12,-146"/>
<polygon fill="#4a5568" stroke="#4a5568" stroke-width="1.2" points="1264.12,-148.8 1272.12,-146 1264.12,-143.2 1264.12,-148.8"/>
<text text-anchor="middle" x="1225.84" y="-147.8" font-family="Helvetica,sans-Serif" font-size="9.00">«include»</text>
</g>
</g>
</svg>
